<svg width="37" height="60" viewBox="0 0 37 60" fill="none" xmlns="http://www.w3.org/2000/svg">
<path d="M3.30444 30.0936C4.33554 29.9063 4.99196 28.9683 4.89837 27.9373L3.96093 21.4684L5.83584 19.6872L6.11724 16.312C6.2109 15.3746 6.4923 14.4371 6.86737 13.687L0.585788 19.4998C0.117067 19.8748 -0.070248 20.5309 0.0234144 21.0937L1.14865 28.5C1.33553 29.4374 2.08566 30.2812 3.30453 30.0935L3.30444 30.0936Z" fill="white"/>
<path d="M22.9914 24.9371L18.3037 27.5621L18.0223 31.5932C17.9286 32.7185 17.5536 33.7496 16.9912 34.687L21.4911 32.1556V38.8118C21.4911 40.3116 22.71 41.6241 24.3034 41.6241C25.8974 41.6241 27.1158 40.4053 27.1158 38.8118L27.1166 27.3738C27.2103 25.2175 24.8667 23.905 22.9914 24.9365L22.9914 24.9371Z" fill="white"/>
<path d="M34.4297 57.4688H36.7733V60.0001H34.4297V57.4688Z" fill="white"/>
<path d="M21.6799 41.4377H17.4614C16.9926 41.4377 16.5239 41.9065 16.5239 42.4688V45.5626H33.1173V42.4688C33.1173 41.9065 32.7423 41.4377 32.1799 41.4377H27.1177C25.617 43.0312 23.0861 42.9375 21.6795 41.4377H21.6799Z" fill="white"/>
<path d="M12.8677 57.4688H15.2113V60.0001H12.8677V57.4688Z" fill="white"/>
<path d="M25.7105 50.625H32.1794C32.6481 50.625 33.1168 50.1563 33.1168 49.5939V46.5002L16.5234 46.4998V49.5935C16.5234 50.1559 16.8985 50.6246 17.4608 50.6246L24.0234 50.625V57.4685H16.1484V59.9999H33.4921V57.4685H25.6171V50.625H25.7105Z" fill="white"/>
<path d="M17.6483 24.1869C17.5546 24.0933 17.3669 23.9996 17.2732 23.9055L11.2731 18.8433C10.0542 17.8122 9.96054 16.1247 10.9916 14.9058C12.0227 13.687 13.804 13.5933 14.9292 14.5307L18.2102 17.2493V17.1557C18.3975 14.062 16.0539 11.4369 12.9601 11.1555C9.86642 10.9682 7.24139 13.3118 6.95997 16.4056L6.02253 30.7494C5.92887 32.812 6.86631 34.6869 8.46016 35.8116C7.42907 42.7492 4.99133 49.8737 2.74142 56.155C2.17904 57.5612 2.92873 59.2488 4.42893 59.7175C5.83514 60.2798 7.52266 59.5302 7.99135 58.0299C10.429 51.3738 12.96 43.6861 14.0851 36.0921C15.7726 35.2484 17.0851 33.5608 17.1788 31.4986L17.6483 24.1869Z" fill="white"/>
<path d="M19.1487 5.34363C19.1487 8.29493 16.7559 10.6873 13.8051 10.6873C10.8538 10.6873 8.46143 8.29493 8.46143 5.34363C8.46143 2.39233 10.8538 0 13.8051 0C16.7559 0 19.1487 2.39233 19.1487 5.34363Z" fill="white"/>
<path d="M11.6487 15.468C10.9927 16.2182 11.0863 17.4365 11.836 18.0931L17.8362 23.1553C18.4922 23.7177 19.336 23.7177 20.0861 23.3426L26.0863 19.4988C26.93 18.9364 27.2115 17.8112 26.6486 16.8737C26.0863 16.03 24.9611 15.7485 24.0236 16.3114L19.1487 19.4051L14.18 15.1861C13.4299 14.6242 12.3047 14.7179 11.6487 15.468Z" fill="white"/>
</svg>
